<?xml version="1.0" encoding="utf-8"?>
<!-- Generator: Adobe Illustrator 24.0.1, SVG Export Plug-In . SVG Version: 6.00 Build 0)  -->
<svg version="1.1" id="图层_1" xmlns="http://www.w3.org/2000/svg" xmlns:xlink="http://www.w3.org/1999/xlink" x="0px" y="0px"
	 viewBox="0 0 492 492" style="enable-background:new 0 0 492 492;" xml:space="preserve">
<title>公众号二维码</title>
<rect x="239.4" y="0" width="13.3" height="13.3"/>
<path d="M478.7,0h-79.8v93.1H492V0H478.7z M478.7,26.6v53.2h-66.5V13.3h66.5V26.6z"/>
<polygon points="119.7,26.6 133,26.6 146.3,26.6 146.3,13.3 159.6,13.3 172.9,13.3 186.2,13.3 186.2,0 172.9,0 159.6,0 146.3,0 
	133,0 119.7,0 106.4,0 106.4,13.3 119.7,13.3 "/>
<polygon points="359,26.6 359,39.9 359,53.2 359,66.5 359,79.8 372.3,79.8 372.3,93.1 372.3,106.4 385.6,106.4 385.6,93.1 
	385.6,79.8 385.6,66.5 372.3,66.5 372.3,53.2 385.6,53.2 385.6,39.9 385.6,26.6 385.6,13.3 372.3,13.3 372.3,0 359,0 345.7,0 
	345.7,13.3 359,13.3 "/>
<polygon points="172.9,26.6 159.6,26.6 159.6,39.9 172.9,39.9 186.2,39.9 199.5,39.9 199.5,26.6 199.5,13.3 186.2,13.3 186.2,26.6 
	"/>
<polygon points="438.8,26.6 425.5,26.6 425.5,39.9 425.5,53.2 425.5,66.5 438.8,66.5 452.1,66.5 465.4,66.5 465.4,53.2 465.4,39.9 
	465.4,26.6 452.1,26.6 "/>
<rect x="106.4" y="39.9" width="13.3" height="13.3"/>
<polygon points="292.5,39.9 292.5,26.6 305.8,26.6 305.8,39.9 319.1,39.9 319.1,26.6 332.4,26.6 345.7,26.6 345.7,13.3 332.4,13.3 
	319.1,13.3 305.8,13.3 292.5,13.3 292.5,0 279.2,0 279.2,13.3 279.2,26.6 266,26.6 266,13.3 252.6,13.3 252.6,26.6 239.4,26.6 
	239.4,13.3 226.1,13.3 226.1,0 212.8,0 212.8,13.3 212.8,26.6 212.8,39.9 226.1,39.9 239.4,39.9 252.6,39.9 266,39.9 279.2,39.9 
	279.2,53.2 279.2,66.5 292.5,66.5 292.5,53.2 305.8,53.2 305.8,39.9 "/>
<polygon points="53.2,66.5 66.5,66.5 66.5,53.2 66.5,39.9 66.5,26.6 53.2,26.6 39.9,26.6 26.6,26.6 26.6,39.9 26.6,53.2 26.6,66.5 
	39.9,66.5 "/>
<rect x="226.1" y="53.2" width="13.3" height="13.3"/>
<rect x="252.6" y="53.2" width="13.3" height="13.3"/>
<polygon points="133,66.5 133,53.2 119.7,53.2 119.7,66.5 119.7,79.8 133,79.8 "/>
<polygon points="212.8,79.8 212.8,66.5 199.5,66.5 186.2,66.5 186.2,79.8 186.2,93.1 199.5,93.1 199.5,79.8 "/>
<polygon points="319.1,66.5 332.4,66.5 332.4,53.2 319.1,53.2 305.8,53.2 305.8,66.5 305.8,79.8 319.1,79.8 "/>
<rect x="332.4" y="66.5" width="13.3" height="13.3"/>
<path d="M26.6,93.1h66.5V0H0v93.1H26.6z M13.3,66.5V13.3h66.5v66.5H13.3V66.5z"/>
<rect x="106.4" y="79.8" width="13.3" height="13.3"/>
<rect x="133" y="79.8" width="13.3" height="13.3"/>
<polygon points="159.6,93.1 172.9,93.1 172.9,79.8 172.9,66.5 172.9,53.2 159.6,53.2 159.6,66.5 146.3,66.5 146.3,79.8 159.6,79.8 
	"/>
<rect x="212.8" y="79.8" width="13.3" height="13.3"/>
<rect x="266" y="79.8" width="13.3" height="13.3"/>
<rect x="292.5" y="79.8" width="13.3" height="13.3"/>
<rect x="345.7" y="79.8" width="13.3" height="13.3"/>
<rect x="199.5" y="93.1" width="13.3" height="13.3"/>
<rect x="26.6" y="106.4" width="13.3" height="13.3"/>
<rect x="106.4" y="106.4" width="13.3" height="13.3"/>
<polygon points="172.9,119.7 186.2,119.7 186.2,106.4 172.9,106.4 159.6,106.4 146.3,106.4 146.3,119.7 159.6,119.7 "/>
<rect x="359" y="106.4" width="13.3" height="13.3"/>
<polygon points="478.7,119.7 465.4,119.7 465.4,133 478.7,133 478.7,146.3 465.4,146.3 465.4,159.6 478.7,159.6 478.7,172.9 
	465.4,172.9 452.1,172.9 452.1,159.6 438.8,159.6 438.8,172.9 438.8,186.2 452.1,186.2 452.1,199.5 465.4,199.5 465.4,212.8 
	478.7,212.8 478.7,199.5 492,199.5 492,186.2 492,172.9 492,159.6 492,146.3 492,133 492,119.7 492,106.4 478.7,106.4 "/>
<rect x="13.3" y="119.7" width="13.3" height="13.3"/>
<polygon points="66.5,119.7 79.8,119.7 93.1,119.7 93.1,106.4 79.8,106.4 66.5,106.4 53.2,106.4 53.2,119.7 53.2,133 66.5,133 "/>
<rect x="186.2" y="119.7" width="13.3" height="13.3"/>
<polygon points="385.6,133 398.9,133 398.9,146.3 412.2,146.3 425.5,146.3 438.8,146.3 438.8,133 425.5,133 412.2,133 412.2,119.7 
	398.9,119.7 398.9,106.4 385.6,106.4 385.6,119.7 "/>
<polygon points="452.1,119.7 452.1,106.4 438.8,106.4 438.8,119.7 438.8,133 452.1,133 "/>
<polygon points="133,146.3 146.3,146.3 146.3,133 146.3,119.7 133,119.7 119.7,119.7 119.7,133 133,133 "/>
<polygon points="186.2,146.3 186.2,133 172.9,133 159.6,133 159.6,146.3 172.9,146.3 "/>
<polygon points="212.8,146.3 226.1,146.3 239.4,146.3 239.4,159.6 226.1,159.6 226.1,172.9 239.4,172.9 252.6,172.9 252.6,159.6 
	252.6,146.3 266,146.3 266,159.6 266,172.9 279.2,172.9 279.2,159.6 279.2,146.3 279.2,133 292.5,133 292.5,119.7 292.5,106.4 
	292.5,93.1 279.2,93.1 279.2,106.4 266,106.4 252.6,106.4 252.6,93.1 252.6,79.8 252.6,66.5 239.4,66.5 239.4,79.8 239.4,93.1 
	226.1,93.1 226.1,106.4 239.4,106.4 239.4,119.7 252.6,119.7 252.6,133 239.4,133 226.1,133 226.1,119.7 212.8,119.7 212.8,133 
	199.5,133 199.5,146.3 "/>
<rect x="146.3" y="146.3" width="13.3" height="13.3"/>
<rect x="385.6" y="146.3" width="13.3" height="13.3"/>
<polygon points="172.9,172.9 186.2,172.9 186.2,159.6 172.9,159.6 159.6,159.6 159.6,172.9 "/>
<polygon points="345.7,159.6 359,159.6 359,172.9 359,186.2 372.3,186.2 385.6,186.2 385.6,172.9 372.3,172.9 372.3,159.6 
	372.3,146.3 359,146.3 345.7,146.3 345.7,133 345.7,119.7 345.7,106.4 345.7,93.1 332.4,93.1 332.4,79.8 319.1,79.8 319.1,93.1 
	305.8,93.1 305.8,106.4 305.8,119.7 319.1,119.7 332.4,119.7 332.4,133 332.4,146.3 332.4,159.6 332.4,172.9 345.7,172.9 "/>
<polygon points="398.9,186.2 398.9,199.5 412.2,199.5 412.2,186.2 412.2,172.9 425.5,172.9 425.5,159.6 412.2,159.6 398.9,159.6 
	398.9,172.9 "/>
<path d="M425.5,199.5h-13.3v13.3H359v13.3h13.3v40H359v13.3h39.9v13.3h13.3v-13.3h13.3V266h-13.3v-39.9h13.3v-13.3h13.3v-26.6h-13.3
	V199.5z M398.9,266h-13.3v-13.3h13.3V266z M398.9,239.4h-13.3v-13.3h13.3V239.4z"/>
<polygon points="159.6,212.8 172.9,212.8 172.9,199.5 172.9,186.2 159.6,186.2 159.6,172.9 146.3,172.9 133,172.9 133,186.2 
	146.3,186.2 146.3,199.5 159.6,199.5 "/>
<path d="M345.7,199.5v-13.3h-13.3v-13.3h-13.3v26.6h13.3v13.3h-13.3v13.3h-13.3v13.3h26.6v13.3h-39.9v-13.3H266v-26.6h13.3v13.3
	h26.6v-53.2h13.3v-13.3h-13.3V133h-13.3v53.2h-13.3v13.3H266v-13.3h-39.9v39.9h-13.3v-13.3h-13.3v-13.3h13.3v-13.3H226v-13.3h-13.3
	v-13.3h-13.3v13.3h-13.3v39.9h-13.3v39.9h13.3v-26.6h13.3v13.3H226v13.3h-26.6V266h13.3v13.3h26.6v-39.9h13.3v39.9H266v-26.6h13.3
	v26.6h39.9V266H359v-26.6h-13.3v-26.6H359v-13.3L345.7,199.5z M239.4,226.1v-13.3h13.3v13.3L239.4,226.1z"/>
<polygon points="106.4,212.8 93.1,212.8 79.8,212.8 66.5,212.8 66.5,226.1 79.8,226.1 93.1,226.1 93.1,239.4 106.4,239.4 
	106.4,226.1 "/>
<polygon points="438.8,239.4 438.8,252.7 452.1,252.7 465.4,252.7 478.7,252.7 478.7,266 492,266 492,252.7 492,239.4 492,226.1 
	478.7,226.1 465.4,226.1 452.1,226.1 452.1,212.8 438.8,212.8 438.8,226.1 "/>
<rect x="79.8" y="239.4" width="13.3" height="13.3"/>
<rect y="252.7" width="13.3" height="13.3"/>
<polygon points="172.9,252.7 159.6,252.7 159.6,266 146.3,266 146.3,279.2 159.6,279.2 172.9,279.2 172.9,266 "/>
<rect x="425.5" y="252.7" width="13.3" height="13.3"/>
<polygon points="159.6,292.5 146.3,292.5 133,292.5 133,305.8 146.3,305.8 146.3,319.1 159.6,319.1 172.9,319.1 172.9,305.8 
	159.6,305.8 "/>
<rect x="292.5" y="292.5" width="13.3" height="13.3"/>
<polygon points="319.1,305.8 332.4,305.8 332.4,292.5 332.4,279.2 319.1,279.2 319.1,292.5 "/>
<polygon points="385.6,305.8 372.3,305.8 372.3,319.1 385.6,319.1 385.6,332.4 385.6,345.7 398.9,345.7 398.9,332.4 412.2,332.4 
	425.5,332.4 438.8,332.4 438.8,345.7 452.1,345.7 452.1,359 465.4,359 478.7,359 478.7,372.3 492,372.3 492,359 492,345.7 
	492,332.4 478.7,332.4 478.7,345.7 465.4,345.7 465.4,332.4 452.1,332.4 452.1,319.1 438.8,319.1 425.5,319.1 412.2,319.1 
	398.9,319.1 398.9,305.8 398.9,292.5 385.6,292.5 "/>
<polygon points="425.5,292.5 425.5,305.8 438.8,305.8 452.1,305.8 452.1,292.5 438.8,292.5 "/>
<polygon points="53.2,319.1 66.5,319.1 66.5,305.8 79.8,305.8 93.1,305.8 93.1,319.1 106.4,319.1 106.4,332.4 119.7,332.4 
	119.7,319.1 119.7,305.8 119.7,292.5 133,292.5 133,279.2 119.7,279.2 106.4,279.2 106.4,292.5 93.1,292.5 79.8,292.5 79.8,279.2 
	93.1,279.2 106.4,279.2 106.4,266 119.7,266 133,266 146.3,266 146.3,252.7 159.6,252.7 159.6,239.4 159.6,226.1 146.3,226.1 
	146.3,212.8 146.3,199.5 133,199.5 119.7,199.5 119.7,212.8 133,212.8 133,226.1 133,239.4 119.7,239.4 106.4,239.4 106.4,252.7 
	93.1,252.7 93.1,266 79.8,266 66.5,266 66.5,252.7 66.5,239.4 66.5,226.1 53.2,226.1 53.2,239.4 53.2,252.7 39.9,252.7 39.9,239.4 
	39.9,226.1 53.2,226.1 53.2,212.8 39.9,212.8 39.9,199.5 53.2,199.5 53.2,212.8 66.5,212.8 66.5,199.5 79.8,199.5 93.1,199.5 
	106.4,199.5 106.4,186.2 106.4,172.9 119.7,172.9 133,172.9 133,159.6 133,146.3 119.7,146.3 119.7,159.6 106.4,159.6 106.4,146.3 
	119.7,146.3 119.7,133 106.4,133 93.1,133 79.8,133 79.8,146.3 93.1,146.3 93.1,159.6 79.8,159.6 79.8,172.9 93.1,172.9 93.1,186.2 
	79.8,186.2 66.5,186.2 66.5,172.9 66.5,159.6 53.2,159.6 53.2,146.3 53.2,133 39.9,133 26.6,133 26.6,146.3 39.9,146.3 39.9,159.6 
	26.6,159.6 26.6,146.3 13.3,146.3 13.3,133 0,133 0,146.3 0,159.6 0,172.9 0,186.2 0,199.5 0,212.8 13.3,212.8 13.3,199.5 
	13.3,186.2 26.6,186.2 26.6,199.5 26.6,212.8 26.6,226.1 13.3,226.1 0,226.1 0,239.4 13.3,239.4 26.6,239.4 26.6,252.7 26.6,266 
	13.3,266 13.3,279.2 0,279.2 0,292.5 0,305.8 13.3,305.8 13.3,292.5 26.6,292.5 26.6,279.2 39.9,279.2 53.2,279.2 66.5,279.2 
	66.5,292.5 53.2,292.5 39.9,292.5 39.9,305.8 26.6,305.8 26.6,319.1 39.9,319.1 "/>
<polygon points="266,305.8 266,319.1 279.2,319.1 292.5,319.1 292.5,305.8 279.2,305.8 "/>
<polygon points="359,305.8 345.7,305.8 332.4,305.8 332.4,319.1 319.1,319.1 319.1,305.8 305.8,305.8 305.8,319.1 305.8,332.4 
	292.5,332.4 279.2,332.4 279.2,345.7 292.5,345.7 292.5,359 305.8,359 319.1,359 319.1,372.3 305.8,372.3 305.8,385.6 319.1,385.6 
	319.1,398.9 319.1,412.2 305.8,412.2 305.8,425.5 319.1,425.5 319.1,438.8 332.4,438.8 332.4,452.1 345.7,452.1 345.7,438.8 
	359,438.8 359,425.5 359,412.2 345.7,412.2 332.4,412.2 332.4,398.9 332.4,385.6 345.7,385.6 345.7,372.3 359,372.3 359,359 
	345.7,359 332.4,359 332.4,345.7 345.7,345.7 359,345.7 359,332.4 372.3,332.4 372.3,319.1 359,319.1 "/>
<rect x="79.8" y="319.1" width="13.3" height="13.3"/>
<polygon points="478.7,319.1 478.7,305.8 492,305.8 492,292.5 478.7,292.5 478.7,279.2 465.4,279.2 452.1,279.2 452.1,292.5 
	465.4,292.5 465.4,305.8 465.4,319.1 465.4,332.4 478.7,332.4 "/>
<polygon points="26.6,332.4 26.6,319.1 13.3,319.1 0,319.1 0,332.4 13.3,332.4 13.3,345.7 26.6,345.7 "/>
<rect y="345.7" width="13.3" height="13.3"/>
<polygon points="93.1,359 93.1,345.7 79.8,345.7 66.5,345.7 66.5,332.4 53.2,332.4 53.2,345.7 39.9,345.7 39.9,359 53.2,359 
	66.5,359 66.5,372.3 79.8,372.3 79.8,359 "/>
<polygon points="13.3,359 13.3,372.3 26.6,372.3 39.9,372.3 39.9,359 26.6,359 "/>
<polygon points="106.4,359 93.1,359 93.1,372.3 79.8,372.3 79.8,385.6 93.1,385.6 106.4,385.6 106.4,372.3 119.7,372.3 133,372.3 
	133,359 119.7,359 "/>
<rect x="186.2" y="359" width="13.3" height="13.3"/>
<rect y="372.3" width="13.3" height="13.3"/>
<rect x="465.4" y="372.3" width="13.3" height="13.3"/>
<rect x="106.4" y="385.6" width="13.3" height="13.3"/>
<rect x="226.1" y="385.6" width="13.3" height="13.3"/>
<path d="M279.2,385.6v-13.3H266v-53.2h-13.3v13.3h-13.3v-13.3h13.3v-39.9h-13.3v13.3h-13.3v13.3h-13.3v-26.6h-13.3V266h-13.3v13.3
	h-13.3v26.6h13.3v13.3h-13.3v13.3h26.6v13.3H226v26.6h26.6v13.3H266V399h39.9v-13.3L279.2,385.6L279.2,385.6z M212.8,332.4v-13.3
	H226v13.3L212.8,332.4z"/>
<path d="M359,398.9h13.3v39.9h13.3v13.3h13.3v-13.3h26.6v13.3h-13.3v13.3h26.6v-26.6h13.3v-13.3h-13.3v-39.9h13.3v-13.3h-26.6V359
	h-39.9v13.3H359V398.9L359,398.9z M398.9,385.6h26.6v39.9h-39.9v-39.9L398.9,385.6z"/>
<path d="M66.5,398.9H0V492h93.1v-93.1H66.5z M79.8,425.5v53.2H13.3v-66.5h66.5V425.5z"/>
<rect x="133" y="398.9" width="13.3" height="13.3"/>
<polygon points="239.4,398.9 239.4,412.2 252.6,412.2 252.6,425.5 252.6,438.8 266,438.8 266,425.5 266,412.2 266,398.9 
	252.6,398.9 "/>
<rect x="398.9" y="398.9" width="13.3" height="13.3"/>
<polygon points="465.4,398.9 452.1,398.9 452.1,412.2 465.4,412.2 478.7,412.2 492,412.2 492,398.9 492,385.6 478.7,385.6 
	478.7,398.9 "/>
<polygon points="106.4,412.2 106.4,425.5 106.4,438.8 119.7,438.8 119.7,425.5 133,425.5 133,412.2 119.7,412.2 "/>
<polygon points="212.8,412.2 199.5,412.2 199.5,425.5 186.2,425.5 186.2,412.2 186.2,398.9 199.5,398.9 212.8,398.9 212.8,385.6 
	212.8,372.3 199.5,372.3 199.5,385.6 186.2,385.6 186.2,372.3 172.9,372.3 172.9,359 186.2,359 186.2,345.7 172.9,345.7 
	172.9,332.4 159.6,332.4 146.3,332.4 133,332.4 119.7,332.4 119.7,345.7 133,345.7 133,359 146.3,359 159.6,359 159.6,372.3 
	146.3,372.3 146.3,385.6 146.3,398.9 159.6,398.9 172.9,398.9 172.9,412.2 159.6,412.2 146.3,412.2 146.3,425.5 159.6,425.5 
	172.9,425.5 172.9,438.8 159.6,438.8 159.6,452.1 172.9,452.1 186.2,452.1 186.2,438.8 199.5,438.8 212.8,438.8 226.1,438.8 
	226.1,452.1 239.4,452.1 239.4,438.8 239.4,425.5 239.4,412.2 226.1,412.2 "/>
<rect x="279.2" y="412.2" width="13.3" height="13.3"/>
<polygon points="39.9,425.5 26.6,425.5 26.6,438.8 26.6,452.1 26.6,465.4 39.9,465.4 53.2,465.4 66.5,465.4 66.5,452.1 66.5,438.8 
	66.5,425.5 53.2,425.5 "/>
<rect x="305.8" y="438.8" width="13.3" height="13.3"/>
<rect x="359" y="438.8" width="13.3" height="13.3"/>
<polygon points="465.4,452.1 478.7,452.1 478.7,465.4 492,465.4 492,452.1 492,438.8 478.7,438.8 465.4,438.8 452.1,438.8 
	452.1,452.1 "/>
<rect x="106.4" y="452.1" width="13.3" height="13.3"/>
<rect x="146.3" y="452.1" width="13.3" height="13.3"/>
<rect x="186.2" y="452.1" width="13.3" height="13.3"/>
<polygon points="119.7,465.4 119.7,478.7 119.7,492 133,492 146.3,492 146.3,478.7 146.3,465.4 133,465.4 "/>
<polygon points="159.6,465.4 159.6,478.7 172.9,478.7 186.2,478.7 186.2,465.4 172.9,465.4 "/>
<rect x="212.8" y="465.4" width="13.3" height="13.3"/>
<rect x="239.4" y="465.4" width="13.3" height="13.3"/>
<polygon points="279.2,465.4 292.5,465.4 292.5,452.1 279.2,452.1 266,452.1 266,465.4 266,478.7 279.2,478.7 "/>
<polygon points="398.9,465.4 385.6,465.4 372.3,465.4 359,465.4 345.7,465.4 332.4,465.4 319.1,465.4 305.8,465.4 305.8,478.7 
	319.1,478.7 319.1,492 332.4,492 332.4,478.7 345.7,478.7 359,478.7 372.3,478.7 372.3,492 385.6,492 398.9,492 412.2,492 
	412.2,478.7 398.9,478.7 "/>
<rect x="438.8" y="465.4" width="13.3" height="13.3"/>
<polygon points="465.4,478.7 465.4,492 478.7,492 492,492 492,478.7 478.7,478.7 478.7,465.4 465.4,465.4 "/>
<polygon points="199.5,492 212.8,492 212.8,478.7 199.5,478.7 186.2,478.7 186.2,492 "/>
<rect x="226.1" y="478.7" width="13.3" height="13.3"/>
<rect x="252.6" y="478.7" width="13.3" height="13.3"/>
<rect x="425.5" y="478.7" width="13.3" height="13.3"/>
</svg>
